<svg width="16" height="16" viewBox="0 0 16 16" fill="none" xmlns="http://www.w3.org/2000/svg">
<rect width="16" height="16" fill="white"/>
<path d="M6 11C5.53333 11 5.13889 10.8389 4.81667 10.5167C4.49444 10.1944 4.33333 9.8 4.33333 9.33333C4.33333 8.86667 4.49444 8.47222 4.81667 8.15C5.13889 7.82778 5.53333 7.66667 6 7.66667C6.46667 7.66667 6.86111 7.82778 7.18333 8.15C7.50556 8.47222 7.66667 8.86667 7.66667 9.33333C7.66667 9.8 7.50556 10.1944 7.18333 10.5167C6.86111 10.8389 6.46667 11 6 11ZM3.33333 14.6667C2.96667 14.6667 2.65278 14.5361 2.39167 14.275C2.13056 14.0139 2 13.7 2 13.3333V4C2 3.63333 2.13056 3.31944 2.39167 3.05833C2.65278 2.79722 2.96667 2.66667 3.33333 2.66667H4V1.33333H5.33333V2.66667H10.6667V1.33333H12V2.66667H12.6667C13.0333 2.66667 13.3472 2.79722 13.6083 3.05833C13.8694 3.31944 14 3.63333 14 4V13.3333C14 13.7 13.8694 14.0139 13.6083 14.275C13.3472 14.5361 13.0333 14.6667 12.6667 14.6667H3.33333ZM3.33333 13.3333H12.6667V6.66667H3.33333V13.3333Z" fill="#9B9B9B"/>
</svg>
