<svg width="24" height="24" viewBox="0 0 24 24" fill="none" xmlns="http://www.w3.org/2000/svg">
<path d="M5.31224 10.762C8.23024 5.587 9.68924 3 12.0002 3C14.3112 3 15.7702 5.587 18.6882 10.762L19.0522 11.406C21.4772 15.706 22.6902 17.856 21.5942 19.428C20.4982 21 17.7862 21 12.3642 21H11.6362C6.21424 21 3.50224 21 2.40624 19.428C1.31024 17.856 2.52324 15.706 4.94824 11.406L5.31224 10.762Z" stroke="#DF3B1E" stroke-width="1.5"/>
<path d="M12 8V13" stroke="#DF3B1E" stroke-width="1.5" stroke-linecap="round"/>
<path d="M12 17C12.5523 17 13 16.5523 13 16C13 15.4477 12.5523 15 12 15C11.4477 15 11 15.4477 11 16C11 16.5523 11.4477 17 12 17Z" fill="#DF3B1E"/>
</svg>
