<svg width="26" height="26" viewBox="0 0 26 26" fill="none" xmlns="http://www.w3.org/2000/svg">
<path d="M23.6227 10.8783H22.7501V10.8334H13.0001V15.1667H19.1225C18.2293 17.6892 15.8292 19.5 13.0001 19.5C9.41046 19.5 6.50008 16.5896 6.50008 13C6.50008 9.41039 9.41046 6.50002 13.0001 6.50002C14.657 6.50002 16.1645 7.1251 17.3123 8.14614L20.3765 5.08194C18.4417 3.27873 15.8536 2.16669 13.0001 2.16669C7.01737 2.16669 2.16675 7.01731 2.16675 13C2.16675 18.9827 7.01737 23.8334 13.0001 23.8334C18.9828 23.8334 23.8334 18.9827 23.8334 13C23.8334 12.2736 23.7587 11.5646 23.6227 10.8783Z" fill="#FFC107"/>
<path d="M3.41577 7.95764L6.97506 10.5679C7.93815 8.18352 10.2706 6.50002 13 6.50002C14.657 6.50002 16.1644 7.1251 17.3122 8.14614L20.3764 5.08194C18.4416 3.27873 15.8535 2.16669 13 2.16669C8.83894 2.16669 5.23035 4.5159 3.41577 7.95764Z" fill="#FF3D00"/>
<path d="M13.0001 23.8333C15.7983 23.8333 18.3409 22.7625 20.2633 21.021L16.9104 18.1838C15.7864 19.0391 14.4125 19.5015 13.0001 19.5C10.1823 19.5 7.7898 17.7033 6.88846 15.1959L3.35571 17.9178C5.14863 21.4262 8.78971 23.8333 13.0001 23.8333Z" fill="#4CAF50"/>
<path d="M23.6226 10.8783H22.75V10.8333H13V15.1666H19.1225C18.6952 16.3672 17.9256 17.4163 16.9087 18.1843L16.9103 18.1832L20.2632 21.0204C20.026 21.236 23.8333 18.4166 23.8333 13C23.8333 12.2736 23.7586 11.5646 23.6226 10.8783Z" fill="#1976D2"/>
</svg>
