<svg width="16" height="16" viewBox="0 0 16 16" fill="none" xmlns="http://www.w3.org/2000/svg">
<rect width="16" height="16" fill="white"/>
<path d="M8.00004 14.6667C7.84449 14.6667 7.71115 14.6222 7.60004 14.5333C7.48893 14.4444 7.4056 14.3278 7.35004 14.1833C7.13893 13.5611 6.87226 12.9778 6.55004 12.4333C6.23893 11.8889 5.80004 11.25 5.23337 10.5167C4.66671 9.78334 4.2056 9.08334 3.85004 8.41667C3.5056 7.75 3.33337 6.94445 3.33337 6C3.33337 4.7 3.78337 3.6 4.68337 2.7C5.59449 1.78889 6.70004 1.33334 8.00004 1.33334C9.30004 1.33334 10.4 1.78889 11.3 2.7C12.2112 3.6 12.6667 4.7 12.6667 6C12.6667 7.01111 12.4723 7.85556 12.0834 8.53333C11.7056 9.2 11.2667 9.86111 10.7667 10.5167C10.1667 11.3167 9.71115 11.9833 9.40004 12.5167C9.10004 13.0389 8.85004 13.5944 8.65004 14.1833C8.59449 14.3389 8.5056 14.4611 8.38337 14.55C8.27226 14.6278 8.14449 14.6667 8.00004 14.6667ZM8.00004 12.2833C8.18893 11.9056 8.40004 11.5333 8.63337 11.1667C8.87782 10.8 9.23337 10.3111 9.70004 9.7C10.1778 9.07778 10.5667 8.50556 10.8667 7.98333C11.1778 7.45 11.3334 6.78889 11.3334 6C11.3334 5.07778 11.0056 4.29445 10.35 3.65C9.7056 2.99445 8.92226 2.66667 8.00004 2.66667C7.07782 2.66667 6.28893 2.99445 5.63337 3.65C4.98893 4.29445 4.66671 5.07778 4.66671 6C4.66671 6.78889 4.81671 7.45 5.11671 7.98333C5.42782 8.50556 5.82226 9.07778 6.30004 9.7C6.76671 10.3111 7.11671 10.8 7.35004 11.1667C7.59449 11.5333 7.81115 11.9056 8.00004 12.2833ZM8.00004 7.66667C8.46671 7.66667 8.86115 7.50556 9.18337 7.18334C9.5056 6.86111 9.66671 6.46667 9.66671 6C9.66671 5.53333 9.5056 5.13889 9.18337 4.81667C8.86115 4.49445 8.46671 4.33334 8.00004 4.33334C7.53337 4.33334 7.13893 4.49445 6.81671 4.81667C6.49449 5.13889 6.33337 5.53333 6.33337 6C6.33337 6.46667 6.49449 6.86111 6.81671 7.18334C7.13893 7.50556 7.53337 7.66667 8.00004 7.66667Z" fill="#9B9B9B"/>
</svg>
